<svg width="99" height="29" viewBox="0 0 99 29" fill="none" xmlns="http://www.w3.org/2000/svg">
<g clip-path="url(#clip0_1755_22346)">
<path d="M38.0255 14.7301C38.0255 11.4159 40.2334 9.00635 43.3956 9.00635C44.8465 9.00635 45.9032 9.51322 46.5577 10.3866C46.5577 9.77055 47.0624 9.27148 47.6853 9.27148H48.7341C49.3807 9.27148 49.9091 9.79395 49.9091 10.4334V19.0502C49.9091 19.6818 49.3965 20.1887 48.7578 20.1887H47.4803C46.9678 20.1887 46.5498 19.7754 46.5498 19.2685V19.0658C45.8874 19.9391 44.8386 20.446 43.3877 20.446C40.2256 20.446 38.0176 18.0442 38.0176 14.7223L38.0255 14.7301ZM46.6208 14.7301C46.6208 13.0535 45.5641 11.8448 43.9239 11.8448C42.2837 11.8448 41.3059 13.0535 41.3059 14.7301C41.3059 16.4066 42.3231 17.6153 43.9239 17.6153C45.5247 17.6153 46.6208 16.4066 46.6208 14.7301Z" fill="black"/>
<path d="M62.6284 11.0728L59.6082 18.8474C59.2928 19.6584 58.5121 20.1887 57.6368 20.1887H57.3608C56.3042 20.1887 55.3579 19.5414 54.9794 18.5667L52.1958 11.4081C51.7936 10.3788 52.5664 9.27148 53.6783 9.27148C54.4668 9.27148 55.1765 9.77056 55.4289 10.5114L57.0533 15.198C57.1874 15.5879 57.7472 15.5879 57.8813 15.198L59.49 10.566C59.7581 9.79395 60.4914 9.27928 61.3115 9.27928H61.3746C62.313 9.27928 62.9675 10.215 62.6284 11.0806V11.0728Z" fill="black"/>
<path d="M68.503 6.18361C68.4321 7.22854 67.6672 7.99274 66.6105 8.05513C65.3882 8.13311 64.3315 7.08038 64.4104 5.87949C64.4814 4.83455 65.2463 4.07035 66.3108 4.00017C67.5331 3.92219 68.5898 4.97492 68.5109 6.17581L68.503 6.18361ZM66.508 20.2278H66.1847C65.404 20.2278 64.7731 19.604 64.7731 18.832V10.7064C64.7731 9.91105 65.4276 9.26381 66.232 9.26381H66.7367C67.5016 9.26381 68.1245 9.87986 68.1245 10.6363V18.6136C68.1245 19.4948 67.399 20.2122 66.508 20.2122V20.2278Z" fill="black"/>
<path d="M71.9102 9.27148H72.8959C73.511 9.27148 74.0078 9.76275 74.0078 10.371V10.3866C74.6702 9.51322 75.6874 9.00635 77.0989 9.00635C79.6618 9.00635 81.4124 10.8545 81.4124 13.8723V18.902C81.4124 19.6116 80.8288 20.1887 80.1112 20.1887H79.3463C78.6288 20.1887 78.0531 19.6194 78.0531 18.9098V14.4338C78.0531 12.7728 77.3749 11.8604 76.1132 11.8604C74.8515 11.8604 73.9999 12.882 73.9999 14.5819V18.8786C73.9999 19.6038 73.4085 20.1887 72.6751 20.1887H72.0127C71.2557 20.1887 70.6406 19.5804 70.6406 18.8318V10.5114C70.6406 9.82514 71.2005 9.27148 71.8944 9.27148H71.9102Z" fill="black"/>
<path d="M85.3075 21.0465H86.3011C86.8058 21.0465 87.2395 21.3038 87.5865 21.6625C87.9334 22.0212 88.4775 22.2006 89.3055 22.2006C90.7013 22.2006 91.6397 21.3038 91.6397 19.9469V18.7928C90.9773 19.6662 89.9285 20.1731 88.4775 20.1731C85.3154 20.1731 83.1074 17.8415 83.1074 14.6365C83.1074 11.4315 85.3154 9.00635 88.4775 9.00635C89.9285 9.00635 90.9852 9.51322 91.6397 10.3866C91.6397 9.77055 92.1443 9.27148 92.7673 9.27148H93.6189C94.376 9.27148 94.991 9.87972 94.991 10.6283V19.9859C94.991 22.9492 92.6017 25 89.2976 25C86.8452 25 85.2208 23.9707 84.4007 22.5671C84.0064 21.8964 84.5111 21.0465 85.2996 21.0465H85.3075ZM91.6791 15.0498C91.892 13.2485 90.3701 11.6031 88.5564 11.876C87.2158 12.0788 86.3878 13.1783 86.3878 14.6365C86.3878 16.2585 87.4051 17.4282 89.0059 17.4282C90.5041 17.4282 91.5135 16.4456 91.6791 15.042V15.0498Z" fill="black"/>
<path d="M26.4738 22.6217C24.8099 22.6217 23.1855 22.1382 21.8134 21.257C18.6276 23.1675 15.8045 22.6841 13.9514 21.8887C12.2797 21.1712 10.8839 19.9704 9.94552 18.4731C7.98989 19.3933 6.40488 19.8846 6.21562 19.9392C5.30878 20.2121 4.35462 19.7052 4.07862 18.8085C3.80262 17.9117 4.31519 16.9681 5.22203 16.6952C5.26146 16.6796 6.8307 16.1883 8.68382 15.2994C7.13824 9.24811 9.77204 6.28488 11.5621 5.0216C12.737 4.19501 14.1407 3.96887 15.4103 4.40556C16.6167 4.81885 17.5236 5.77801 17.9021 7.04908C19.219 11.4471 16.2304 14.6911 12.9421 16.8278C13.5098 17.6855 14.3299 18.3718 15.3077 18.7851C16.6404 19.3543 17.9573 19.3465 19.29 18.7539C16.8849 15.1278 18.6118 12.4141 19.5187 11.377C20.2757 10.5114 21.4349 10.0591 22.6256 10.1683C23.8005 10.2697 24.8493 10.9091 25.425 11.876C26.8759 14.2934 26.0243 16.8668 24.4787 18.8552C25.2436 19.1672 26.0874 19.2997 26.939 19.2217C28.4688 19.0736 29.6122 18.5043 30.3298 17.514C31.6152 15.7516 31.765 12.5077 30.7478 8.1408C30.5349 7.22843 31.1105 6.31607 32.0331 6.10552C32.9557 5.89498 33.8784 6.46423 34.0913 7.37659C35.353 12.804 35.0218 16.8824 33.1056 19.4947C31.7966 21.2882 29.7778 22.3565 27.2544 22.5983C26.9863 22.6217 26.7182 22.6373 26.4501 22.6373L26.4738 22.6217ZM22.2944 13.537C22.2155 13.537 22.1446 13.5604 22.1209 13.5916C21.5847 14.2076 21.1194 15.081 21.9395 16.5314C22.5704 15.6659 23.0514 14.5507 22.4758 13.5994C22.4758 13.5838 22.4127 13.5526 22.3259 13.5448C22.3102 13.5448 22.3023 13.5448 22.2865 13.5448L22.2944 13.537ZM14.117 7.57934C13.9435 7.57934 13.7385 7.64952 13.5492 7.78989C11.909 8.94399 11.3176 10.8545 11.7908 13.4824C13.77 12.0476 15.2604 10.1839 14.6138 8.00043C14.5507 7.78989 14.4403 7.65732 14.2905 7.60274C14.2353 7.58714 14.1801 7.57934 14.117 7.57934Z" fill="black"/>
</g>
<defs>
<clipPath id="clip0_1755_22346">
<rect width="91" height="21" fill="white" transform="translate(4 4)"/>
</clipPath>
</defs>
</svg>
